<?xml version="1.0" standalone="no"?>
<!DOCTYPE svg PUBLIC "-//W3C//DTD SVG 20010904//EN"
 "http://www.w3.org/TR/2001/REC-SVG-20010904/DTD/svg10.dtd">
<svg version="1.0" xmlns="http://www.w3.org/2000/svg"
 width="247.000000pt" height="300.000000pt" viewBox="0 0 247.000000 300.000000"
 preserveAspectRatio="xMidYMid meet">
<metadata>
Created by potrace 1.10, written by Peter Selinger 2001-2011
</metadata>
<g transform="translate(0.000000,300.000000) scale(0.100000,-0.100000)"
fill="#33be34" stroke="none">
<path d="M864 2944 c-44 -21 -54 -51 -54 -155 0 -104 16 -149 58 -169 15 -7
78 -15 140 -18 l112 -5 0 -88 0 -88 -37 -9 c-21 -6 -87 -21 -148 -36 -200 -46
-416 -174 -565 -332 -155 -164 -277 -406 -312 -617 -19 -117 -15 -317 10 -429
94 -429 385 -756 793 -892 136 -46 216 -58 374 -58 520 0 963 323 1129 822 47
143 60 242 53 419 -4 121 -10 163 -35 246 -58 198 -121 322 -238 463 -173 209
-400 341 -706 407 l-78 17 0 94 0 94 106 0 c102 0 106 1 134 28 23 23 29 41
35 94 13 118 -9 201 -57 217 -20 7 -152 11 -357 11 -273 0 -331 -3 -357 -16z
m561 -801 c207 -39 413 -168 548 -346 143 -185 208 -417 186 -656 -11 -123
-32 -200 -84 -306 -140 -291 -414 -486 -737 -526 -391 -48 -778 173 -953 543
-51 107 -76 214 -82 353 -12 264 82 500 274 690 115 113 242 188 390 230 156
45 290 50 458 18z"/>
<path d="M1497 1400 l-137 -50 -33 20 c-46 29 -133 27 -177 -2 -52 -36 -73
-71 -77 -130 -8 -115 85 -196 202 -174 45 9 112 67 120 107 4 16 7 29 8 29 1
0 72 25 157 55 95 34 162 63 173 76 23 28 22 60 -4 93 -30 38 -69 33 -232 -24z"/>
<path d="M327 2386 c-125 -46 -194 -198 -140 -310 l16 -35 101 102 c57 58 132
122 173 147 39 25 71 49 69 55 -11 40 -151 67 -219 41z"/>
<path d="M1975 2389 c-16 -5 -41 -17 -54 -28 l-24 -18 49 -33 c27 -19 72 -51
99 -73 54 -44 185 -177 185 -189 0 -22 20 -3 34 32 71 178 -105 365 -289 309z"/>
</g>
</svg>
